<?xml version="1.0" standalone="no"?>
<!DOCTYPE svg PUBLIC "-//W3C//DTD SVG 20010904//EN"
 "http://www.w3.org/TR/2001/REC-SVG-20010904/DTD/svg10.dtd">
<svg version="1.0" xmlns="http://www.w3.org/2000/svg"
 width="1280.000000pt" height="1118.000000pt" viewBox="0 0 1280.000000 1118.000000"
 preserveAspectRatio="xMidYMid meet">
<g transform="translate(0.000000,1118.000000) scale(0.100000,-0.100000)"
fill="#000000" stroke="none">
<path d="M1175 11155 c-159 -33 -290 -87 -425 -173 -47 -30 -58 -33 -80 -24
-14 6 -54 22 -89 37 -56 24 -74 26 -155 23 -77 -2 -101 -8 -156 -34 -122 -59
-200 -149 -245 -285 -30 -92 -30 -116 0 -208 45 -135 123 -227 242 -283 114
-54 232 -54 346 0 157 73 257 231 257 403 l0 57 48 20 c98 42 197 57 372 57
l165 0 75 -37 c173 -84 354 -258 576 -553 178 -236 462 -701 622 -1020 l50
-101 9 -3134 c9 -2977 8 -3157 -10 -3565 -15 -358 -21 -438 -36 -480 -17 -45
-21 -50 -47 -49 -16 1 -63 12 -104 25 -63 19 -99 23 -225 23 -127 1 -163 -3
-234 -22 -278 -76 -485 -248 -605 -503 -52 -110 -73 -185 -85 -303 -9 -88 0
-236 19 -309 78 -297 290 -539 565 -643 82 -31 278 -74 335 -74 57 0 253 43
334 74 291 110 505 364 572 681 17 82 19 260 4 344 -24 132 -95 292 -179 404
l-41 54 16 179 c18 212 70 444 98 444 8 0 98 -46 202 -102 l189 -102 2845 -8
c1565 -4 2991 -9 3170 -10 l325 -3 3 -31 c2 -16 -6 -52 -18 -78 -23 -54 -12
-53 -145 -15 -68 19 -103 23 -235 23 -140 -1 -164 -3 -245 -28 -309 -93 -537
-314 -633 -612 -67 -209 -52 -456 43 -669 57 -131 185 -283 303 -364 132 -89
251 -135 431 -166 114 -20 166 -16 336 27 537 134 834 726 625 1240 -28 69
-86 170 -139 243 l-29 40 17 160 c10 88 23 169 29 180 6 11 13 28 16 38 5 16
40 17 551 17 l545 0 237 -106 c212 -94 243 -105 282 -101 49 5 81 26 125 81
29 35 31 44 31 114 -1 107 -32 178 -84 191 -20 5 -155 41 -301 80 l-265 70
-553 7 c-381 5 -555 10 -560 18 -5 6 -6 126 -3 266 l6 255 79 5 80 5 1167
3045 c642 1675 1177 3066 1188 3091 12 26 21 51 21 55 0 5 -28 10 -63 11 -71
3 -352 19 -602 33 -93 6 -564 32 -1045 60 -481 28 -951 55 -1045 60 -93 5
-564 32 -1045 60 -481 28 -953 55 -1047 60 -435 25 -560 32 -1218 70 -658 38
-783 45 -1217 70 -95 5 -567 32 -1048 60 -1237 71 -1233 70 -1246 78 -6 4 -67
68 -135 142 -193 211 -658 678 -834 837 -368 333 -624 514 -819 577 -94 31
-118 31 -261 1z m2730 -1925 c231 -11 447 -24 480 -28 l60 -7 6 -205 c10 -318
10 -644 0 -659 -7 -11 -95 -11 -547 -2 -297 7 -549 14 -561 17 l-23 4 0 449
c0 246 3 451 8 455 4 5 41 5 82 2 41 -3 264 -15 495 -26z m1550 -81 c226 -12
413 -24 417 -28 8 -7 14 -819 5 -827 -7 -7 -882 11 -895 19 -11 7 -28 829 -17
846 8 15 19 14 490 -10z m1438 -75 c196 -10 363 -21 370 -26 9 -5 13 -100 16
-393 3 -345 1 -385 -13 -391 -18 -7 -855 12 -863 19 -8 8 -17 782 -9 802 6 15
15 17 74 12 37 -3 228 -14 425 -23z m1717 -91 l105 -8 3 -368 c2 -312 0 -368
-12 -373 -23 -9 -897 13 -906 22 -14 15 -17 753 -3 762 11 7 579 -18 813 -35z
m1165 -59 c193 -10 360 -21 373 -25 l22 -9 0 -340 c0 -301 -2 -341 -16 -347
-21 -8 -903 13 -912 22 -8 8 -15 692 -7 713 4 12 22 14 98 9 50 -3 250 -14
442 -23z m1910 -100 c385 -20 704 -40 709 -45 12 -11 -223 -609 -242 -617 -20
-7 -1377 18 -1427 27 l-40 7 -3 314 c-1 173 0 326 3 339 l6 24 147 -6 c81 -4
462 -23 847 -43z m-7425 -1013 l195 -6 8 -669 c5 -397 4 -673 -1 -678 -10 -10
-1116 27 -1133 37 -11 7 -13 1318 -1 1329 7 7 525 0 932 -13z m1272 -27 c233
-4 340 -10 346 -18 11 -13 23 -1339 12 -1356 -6 -10 -103 -9 -451 4 -244 9
-447 20 -450 24 -4 4 -10 305 -14 669 -6 543 -5 666 6 679 11 13 29 15 113 10
56 -3 253 -9 438 -12z m1538 -32 l205 -7 7 -450 c4 -247 7 -560 5 -695 l-2
-245 -180 3 c-298 4 -679 22 -689 32 -14 14 -22 1360 -8 1369 12 7 320 4 662
-7z m1297 -28 c236 -4 345 -10 352 -18 11 -13 19 -1392 8 -1402 -8 -8 -902 22
-915 30 -5 3 -12 314 -16 692 -5 535 -4 690 6 701 10 12 32 14 118 9 58 -3
259 -9 447 -12z m1403 -30 c287 -4 378 -9 388 -18 11 -11 12 -137 6 -720 l-7
-706 -91 0 c-170 1 -807 28 -814 35 -4 4 -8 322 -10 707 -3 574 -1 702 10 709
7 5 42 7 78 4 36 -2 234 -7 440 -11z m1395 -29 c597 -9 776 -16 782 -31 7 -18
-546 -1422 -563 -1428 -14 -5 -620 13 -671 20 l-33 5 0 712 c0 557 3 716 13
726 8 8 31 10 72 7 33 -3 213 -8 400 -11z m-7062 -1717 c191 -6 351 -14 356
-17 5 -4 12 -310 17 -713 6 -586 5 -710 -7 -724 -11 -13 -27 -15 -98 -10 -48
3 -297 11 -556 17 -279 7 -475 16 -482 21 -10 8 -13 165 -13 723 0 391 3 715
8 720 7 8 177 4 775 -17z m1347 -49 c212 -6 399 -14 415 -18 l30 -7 7 -705 c6
-549 5 -706 -5 -715 -12 -12 -604 -2 -807 14 l-95 7 -9 708 c-6 560 -6 711 4
722 8 10 24 14 44 11 17 -3 204 -10 416 -17z m1642 -57 c102 -4 189 -10 193
-14 4 -3 9 -321 12 -707 6 -671 5 -701 -12 -707 -25 -10 -845 12 -855 22 -11
11 -26 1383 -16 1409 7 19 33 19 678 -3z m1271 -46 c198 -8 363 -18 367 -22 4
-5 10 -321 12 -702 4 -547 2 -694 -8 -700 -13 -7 -509 3 -769 16 l-150 7 -7
695 c-4 382 -6 701 -3 708 6 16 96 15 558 -2z m1409 -51 c202 -7 372 -16 378
-20 13 -8 14 -1364 1 -1384 -8 -13 -69 -13 -442 -3 -238 6 -437 16 -441 20
-10 10 -24 1361 -15 1386 8 20 30 20 519 1z m1396 -50 c6 -3 12 -12 12 -21 0
-16 -459 -1195 -481 -1236 -5 -10 -14 -18 -19 -18 -11 0 -14 1247 -4 1275 6
15 29 16 243 10 130 -4 242 -8 249 -10z m-6991 -1715 c155 -4 285 -10 291 -13
14 -9 25 -786 11 -803 -9 -12 -107 -14 -569 -14 -307 0 -565 3 -574 6 -14 5
-16 52 -16 418 0 227 3 416 8 421 7 7 235 3 849 -15z m1411 -39 c167 -4 307
-12 312 -17 12 -12 15 -753 3 -765 -5 -5 -191 -8 -454 -7 l-444 3 -9 388 c-6
300 -5 391 4 402 10 12 36 14 149 9 75 -3 272 -9 439 -13z m1429 -39 c149 -4
274 -9 277 -12 3 -3 8 -164 12 -358 6 -279 5 -354 -6 -367 -11 -13 -66 -15
-436 -15 -408 0 -424 1 -434 19 -15 30 -14 723 2 739 9 9 52 11 163 6 82 -3
272 -9 422 -12z m1393 -38 c168 -4 313 -11 323 -16 16 -8 17 -33 15 -351 l-3
-342 -460 0 -460 0 -6 350 c-4 246 -3 354 5 364 9 11 37 13 146 7 74 -3 272
-9 440 -12z m1385 -39 c264 -8 515 -15 558 -15 61 0 79 -3 84 -16 5 -14 -218
-602 -240 -631 -13 -18 -907 -19 -925 -1 -9 9 -12 98 -12 338 0 180 3 330 7
333 8 9 -44 9 528 -8z m-52 -997 c12 -32 90 -509 84 -514 -8 -8 -243 -7 -1707
6 -586 6 -1553 14 -2150 20 -2297 20 -2281 20 -2304 44 -59 60 -341 389 -344
401 -2 8 2 23 8 34 l11 21 3198 0 c2550 0 3200 -3 3204 -12z"/>
</g>
</svg>
